/* XPM */
static char *result[] = {
/* columns rows colors chars-per-pixel */
"50 50 9 1",
"C c #f5fd00",
"N c #fd8a00",
"P c #f61100",
"- c #000000",
". c #7f7f7f",
", c #3c3c3c",
"  c #242424",
"G c #008000",
"B c #0000ff",


/* pixels */
"-P- .. - .,,,. - .,,. - .,,,,. - .,,,,,,,,,,. - .,",
"-P- .,. - .,. - .,,. - .,,,,. -- .,,,,,,,,,. - .,,",
" -P- .. - .. - .,,. - .,,,,. -  -- .,,,,,. -- .,,,",
". -P-  - .,. - .,. - - .,,. - .,. - .,,,. - .,,,,,",
"-  -P-- .,. - .,. - . - . -- .,,,. - .,. - .,,,,,,",
"- . -P------ - . - .. ---- .,,,,,,. - . - .,,,,,,,",
" -----PPNCPNPN--- .,,,,. -- .,,,,,,. --- .,,,,,,,,",
",,,,. -------- .,,,,,,. -- .,,,,,,,,,,. - .,,,,. -",
",,,,,,,,. - .,,,,,,,,. ---- .,,,,,,,,,,. - .,,. - ",
",,,,,,,,,. - .,,,,,,. -P . - .,,,,,,,,,,. - .. - .",
",,,,,,,,,,. - .,,,,. -N .,. - .,,,,,,,,,,. -  - .,",
",,,,,,,,,,,. - .,,. -G-G-G-G-G .,,,,,,,,,,. --P.,,",
"-- .,,,,,,,,. -----GGGGGGGGGGGG .,,,,,,,,. --P.,,,",
". -- .,,,,,. - .,,,GG---GG---GG- .,,,,,,,. -N.,,,,",
",,. - .,,,. - .,,,,GGG-GGGG-GGG - .,,,,,. -N.,,,,,",
",,,. - .,. -- .,,,,GGGGG-GGGGGG. - .,,,. -P.,,,,,,",
",,,,. --- -  -P.,,,GGGGGGGGGGGG-. -------P.,,,,,,,",
",,,,,,,. - .. -P.,,,GG------GG- .,,,,,. - .,,,,,,,",
",,,,,,. - .,,. -P.,,,GGGGGGGG. - .,,,,,. -- .,,,,,",
",,,,,. - .,,,,. ---- .GGGGGG. --- .,,,,,,. - .,,,,",
",,,,. - .,,GGGGGGGGGGGGGGGGGGGGGGGGGGGG. -- .,,,,,",
",,,,,. - GGGGGGGGGGGGGGGGGGGGGGGGGGGGGGGG- .,,,,,,",
"- .,,. --GGGGGGGGGGGGGGGGGGGGGGGGGGGGGGGG.,,,,,,,,",
" - .,. - .GGGGGGGGGGGGGG--GGGGGGGGGGGGGG,,,,,,,,,,",
". - .,. - GGGGGGGGGG----------GGGGGGGGGG,,,,,,,,,,",
",. - .,. -GGGG,,,,.GGGGG--GGGGG -- .GGGG,,,,,,,,,,",
",,. ------GGGG,,,. GG--------GG- .. GGGG,,,,,,,,,,",
",,,,,,,,,.GGG .,,,.GGGGG--GGGGG.,. - GGG,,,,,,,,,,",
",,,,,,,,,.GGG.,,,,,GGG------GGG --- .GGG.,,,,,,,,,",
",,,,,,,,. GGG,,,,,,GGGGGGGGGGGG- .,,,GGG----P.,,,,",
",,,. -- ..GGGG,,,,,B-B-B--B-B-B .,. GGGG.,,. --P.,",
",. -- . --GGG .,,,,BBBBBBBBBBBB,,. --GGG,,,. --P.,",
",,. -- .,,,. - .,,,BBBBBBBBBBBB. -- .,,,,,,,,. -NP",
",,,. -- .,,,. - .,,BBBBB,,BBBBB-- .,,,,,,,,,,,,. -",
",,,,. -- .,,,. - .,BBBBB,,BBBBB .,,,,,,,,,,,,,,. -",
",,,,,. -- .,,,. ---BBBBB,,BBBBB.,,,,,,,,,,,,,,,. -",
",,,,,,. -- .,,,,,,,BBGGB,,BGGBB.,,,,,,,,,,,,,,,. -",
",,,,,,,. -- .,,,,,,BGGGG.,GGGGB .,,,,,,,,,,,,,,. -",
",,,,,,,,. -- .,,,,,GGGGG .GGGGG- .,,,,,,,,,,,,,. -",
",,,,,,. -- .,,,,,GGGGGGG--GGGGGGG .,,,. --- .,,. -",
",,,,. -- - .,,,,,GGGGGGG,PGGGGGGG- .,. --  - .,. -",
",,. -- .. - .,,,. - .,,,,,,,,,,,. ------ .. - . - ",
". -- .,,,. - .,. - .,,,,,,,,,,,,,,,. - .,,,. --- .",
"-- .,,,,,,. ----- .,,,,,,,,,,,,,,. ---- .,,,. - .,",
",,,,,,,,,,,,,. - .,,,,,,,,,,,,,,. - .. - .,. - .,,",
",,,,,,,,,,,,.P- .,,,,,,,,,,,,,,. - .,,. - . - .,,,",
",,,,,,,,,,,,,.P- .,,,,,,,,,,,,. - .,,,,. --- .,,,,",
",,,,,,,,,,,,,,.P- .,,,,,,,,,,,,. - .,,,,,,. - .,,,",
",,,,,,,,,,,,,,,.N- .,,,,,,,,,,,,. - .,,,,,,. - .,,",
",,,,,,,,,,,,,,,,.P---- .,,,,,,,,. - .,,,,,,,. - .,",
};