/* XPM */
static char *result[] = {
/* columns rows colors chars-per-pixel */
"50 50 10 1",
"F c #ffffff",
"T c #e95d00",
"- c #000000",
"B c ##644109",
". c #7f7f7f",
", c #3c3c3c",
"  c #242424",
"C c #f5fd00",
"N c #fd8a00",
"P c #f61100",
/* pixels */
"-P- .. - .,,,. - .,,. - .,,,,. - .,,,,,,,,,,. - .,",
"-P- .,. - .,. - .,,. - .,,,,. -- .,,,,,,,,,. - .,,",
" -P- .. - .. - .,,. - .,,,,. -  -- .,,,,,. -- .,,,",
". -P-  - .,. - .,. - - .,,. - .,. - .,,,. - .,,,,,",
"-  -P-- .,. - .,. - . - . -- .,,,. - .,. - .,,,,,,",
"- . -P------ - . - .. ---- .,,,,,,. - . - .,,,,,,,",
" -----PPNCPNPN--- .,,,,. -- .,,,,,,. --- .,,,,,,,,",
",,,,. -------- .,,,,,,. -- .,,,,,,,,,,. - .,,,,. -",
",,,,,,,,. - .,,,,,,,,. ---- .,,,,,,,,,,. - .,,. - ",
",,,,,,,,,. - .,,,,,,. -P . - .,,,,,,,,,,. - .. - .",
",,,,,,,,,,. - .,,,,. -N .,.-- .,,,,,,,,,,. -  - .,",
",,,,,,,,,,,. - .,,. -P .,,-BBB-.,,,,,,,,,,. --P.,,",
"-- .,,,,,,,,. ------ .,-BB-,. - .,,,,,,,,. --P.,,,",
". -- .,,,,,. - .,,,,,,,-BB-,,. - .,,,,,,,. -N.,,,,",
",,. - .,,,. - .,,,,,,,,-BB-,,,. - .,,,,,. -N.,,,,,",
",,,. - .,. -- .---------BB---------.,,,. -P.,,,,,,",
",,,,. --- -  ---TTTTTTTT--TTTTTTTT-------P.,,,,,,,",
",,,,,,,. - ..--TTTTTT--TTT--TTTTTTT--,. - .,,,,,,,",
",,,,,,. - .,--TTTTTT-TTT-TTT-TTTTTTT--,. -- .,,,,,",
",,,,,. - .,--TTTTTT-TTTT-TTTT-TTTTTTT--,,. - .,,,,",
",,,,. - .,--TTTTTTTTTTTT-TTTTTTTTTTTTT-- -- .,,,,,",
",,,,,. - --TTTT--TTTTTTT-TTTTTT--TTTTTT--- .,,,,,,",
"- .,,. ---TTTT-CP-TTTTTTTTTTTT-CP-TTTTT--.,,,,,,,,",
" - .,. - -TTTT-PC-TTTTTTTTTTTT-PC-TTTTT--,,,,,,,,,",
". - .,. --TTTTT--TTTTTTTT-TTTTT--TTTTTT--,,,,,,,,,",
",. - .,. -TTTTTTTTTTTTTT---TTTTTTTTTTTT--,,,,,,,,,",
",,. ------TTTTTTTTTTTT-------TTTTTTTTTT--,,,,,,,,,",
",,,,,,,,,-TTTTTTTTTT------------TTTTTTT--,,,,,,,,,",
",,,,,,,,,-TTTTTTTTTTTTTTTTTTTTTTTTTTTTT--,,,,,,,,,",
",,,,,,,,.-TTTTTTTTTTTTTTTTTTTTTTTTTTTTT-----P.,,,,",
",,,. -- .-TTTTT-TTTTTTTTTTTTT-TTTTTTTTT--,,. --P.,",
",. -- . --TTTTTTT---TTTTTTTTTTT---TTTTT--,,. --P.,",
",,. -- .,-TTTTTTTT---TTTTTTTTT---TTTTTT--,,,,. -NP",
",,,. -- .-TTTTTTTTT--F-F-P-P-F--TTTTTTT--,,,,,,. -",
",,,,. -- --TTTTTTTTT--P-F-F-F---TTTTTTT--,,,,,,. -",
",,,,,. --.--TTTTTTTTTTTTTTTTTTTTTTTTTTT--,,,,,,. -",
",,,,,,. - .,-TTTTTTTTTTTTTTTTTTTTTTTTTT--,,,,,,. -",
",,,,,,,. - .,-TTTTTTTTTTTTTTTTTTTTTTTT--,,,,,,,. -",
",,,,,,,,.-- .--TTTTTTTTTTTTTTTTTTTTTT---,,,,,,,. -",
",,,,,,. - .,,,------------------------. --- .,,. -",
",,,,. -- - .,,,,,. - .,,,PPNCP,. - .,. --  - .,. -",
",,. -- .. - .,,,. - .,,,,,,,,,,,. ------ .. - . - ",
". -- .,,,. - .,. - .,,,,,,,,,,,,,,,. - .,,,. --- .",
"-- .,,,,,,. ----- .,,,,,,,,,,,,,,. ---- .,,,. - .,",
",,,,,,,,,,,,,. - .,,,,,,,,,,,,,,. - .. - .,. - .,,",
",,,,,,,,,,,,.P- .,,,,,,,,,,,,,,. - .,,. - . - .,,,",
",,,,,,,,,,,,,.P- .,,,,,,,,,,,,. - .,,,,. --- .,,,,",
",,,,,,,,,,,,,,.P- .,,,,,,,,,,,,. - .,,,,,,. - .,,,",
",,,,,,,,,,,,,,,.N- .,,,,,,,,,,,,. - .,,,,,,. - .,,",
",,,,,,,,,,,,,,,,.P---- .,,,,,,,,. - .,,,,,,,. - .,",
};