/* XPM */
static char *result[] = {
/* columns rows colors chars-per-pixel */
"50 50 13 1",
"- c #000000",
"F c #ffffff",
"B c #744700",
"R c #cc0000",
"S c #f8ff09",
"K c #ffa100",
"D c #18392b",
". c #7f7f7f",
", c #3c3c3c",
"  c #242424",
"C c #f5fd00",
"N c #fd8a00",
"P c #f61100",
/* pixels */
"-P- .. - .,,,. - .,,. - .,,,,. - .,,,,,,,,,,. - .,",
"-P- .,. - .,. - .,,. - .,,,,. -- .,,,,,,,,,. - .,,",
" -P- .. - .. - .,,. - .,,,,. -  -- .,,,,,. -- .,,,",
". -P-  - .,. - .,. - - .,,. - .,. - .,,,. - .,,,,,",
"-  -P-- .,. - .,. - . - . -- .,,,. - .,. - .,,,,,,",
"- . -P------ - . - .. ---- .,,,,,,. - . - .,,,,,,,",
" -----PPNCPNPN--- .,,,,. -- .,,,,,,. --- .,,,,,,,,",
",,,,. -------- .,,,,,,. -- .,,,,,,,,,,. - .,,,,. -",
",,,,,,,,. - .,,,,,,,,. ---- .,,,,,,,,,,. - .,,. - ",
",,,,,,,,,.RS .R,,,,,. -F..F---K--RS---R-K - .. - .",
",,,,,,,,,SNSRN-RS---F..----..F-RSN--R-K-S. -  -P.,",
",,,,,,,,,RSRSRNR-NF..--------..F--RRSNS-R,. --P.,,",
"-- .,,,,,,RSRN--F..------------..F-RNRSR,. --N.,,,",
". -- .,,,,RRSNF..B-B-BBB-B---BBB-..FRSN-K. -N.,,,,",
",,. - .,,,RSF..--BBB-BBB-B---BBB---..FSN. -P.,,,,,",
",,,. - .,.NF..---B-B-BBB-BBB-B------..FR -P.,,,,,,",
",,,,. --- F,F........................F,F- .,,,,,,,",
",,,,,,,. -F,FDDD,DDD,DDD..DDD,DDD,DDDF,F- .,,,,,,,",
",,,,,,. - F,FDBD,DBD,DBD..DBD,DBD,DBDF,F -- .,,,,,",
",,,,,. - .F,FDDD,DDD,DDD..DDD,DDD,DDDF,F,. - .,,,,",
",,,,. - .,F,F........................F,F -- .,,,,,",
",,,,,. - .F,FDDD,DDD,DDD..DDD,DDD,DDDF,F - .,,,,,,",
"- .,,. -- F,FDBD,DBD,DBD..DBD,DBD,DBDF,F .,,,,,,,,",
" - .,. - .F,FDDD,DDD,DDD..DDD,DDD,DDDF,F,,,,,,,,,,",
". - .,. - F,F........................F,F,,,,,,,,,,",
",. - .,. -F,FDDD,DDD,DDD..DDD,DDD,DDDF,F,,,,,,,,,,",
",,. ------F,FDBD,DBD,DBD..DBD,DBD,DBDF,F,,,,,,,,,,",
",,,,,,,,,.F,FDDD,DDD,DDD..DDD,DDD,DDDF,F,,,,,,,,,,",
",,,,,,,,,.F,F........................F,F.,,,,,,,,,",
",,,,,,,,. F,FDDD,DDD,BBB..BBB,DDD,DDDF,FP---P.,,,,",
",,,. -- ..F,FDBD,DBD,BPB..BPB,DBD,DBDF,F.,,. --P.,",
",. -- . --F,FDDD,DDD,BBB..BBB,DDD,DDDF,F,,,. --P.,",
",,. -- .,,F,F........................F,F,,,,,. -NP",
",,,. -- .,F,FDDD,DDD,DDD..DDD,DDD,DDDF,F,,,,,,,. -",
",,,,. -- .F,FDBD,DBD,DBD..DBD,DBD,DBDF,F,,,,,,,. -",
",,,,,. -- F,FDDD,DDD,DDD..DDD,DDD,DDDF,F,,,,,,,. -",
",,,,,,. --F,F........................F,F,,,,,,,. -",
",,,,,,,. -F,FDDD,DDD,DDD..DDD,DDD,DDDF,F,,,,,,,. -",
",,,,,,,,. F,FDBD,DBD,DBD..DBD,DBD,DBDF,F,,,,,,,. -",
",,,,,,. --F,FDDD,DDD,DDD..DDD,DDD,DDDF,F,,,,,,,. -",
",,,,. -- -F,F........................F,F,,,,,,,. -",
",,. -- .. - .,,,. - .,,,,,,,,,,,. ------ .. - . - ",
". -- .,,,. - .,. - .,,,,,,,,,,,,,,,. - .,,,. --- .",
"-- .,,,,,,. ----- .,,,,,,,,,,,,,,. ---- .,,,. - .,",
",,,,,,,,,,,,,. - .,,,,,,,,,,,,,,. - .. - .,. - .,,",
",,,,,,,,,,,,.P- .,,,,,,,,,,,,,,. - .,,. - . - .,,,",
",,,,,,,,,,,,,.P- .,,,,,,,,,,,,. - .,,,,. --- .,,,,",
",,,,,,,,,,,,,,.P- .,,,,,,,,,,,,. - .,,,,,,. - .,,,",
",,,,,,,,,,,,,,,.N- .,,,,,,,,,,,,. - .,,,,,,. - .,,",
",,,,,,,,,,,,,,,,.P---- .,,,,,,,,. - .,,,,,,,. - .,",
};