/* XPM */
static char *result[] = {
/* columns rows colors chars-per-pixel */
"50 50 7 1",
"C c #f5fd00",
"N c #fd8a00",
"P c #f61100",
"- c #000000",
". c #7f7f7f",
", c #3c3c3c",
"  c #242424",
/* pixels */
"-P- .. - .,,,. - .,,. - .,,,,. - .,,,,,,,,,,. - .,",
"-P- .,. - .,. - .,,. - .,,,,. -- .,,,,,,,,,. - .,,",
" -P- .. - .. - .,,. - .,,,,. -  -- .,,,,,. -- .,,,",
". -P-  - .,. - .,. - - .,,. - .,. - .,,,. - .,,,,,",
"-  -P-- .,. - .,. - . - . -- .,,,. - .,. - .,,,,,,",
"- . -P------ - . - .. ---- .,,,,,,. - . - .,,,,,,,",
" -----PPNCPNPN--- .,,,,. -- .,,,,,,. --- .,,,,,,,,",
",,,,. -------- .,,,,,,. -- .,,,,,,,,,,. - .,,,,. -",
",,,,,,,,. - .,,,,,,,,. ---- .,,,,,,,,,,. - .,,. - ",
",,,,,,,,,. - .,,,,,,. -P . - .,,,,,,,,,,. - .. - .",
",,,,,,,,,,. - .,,,,. -N .,. - .,,,,,,,,,,. -  - .,",
",,,,,,,,,,,. - .,,. -P .,,,. - .,,,,,,,,,,. --P.,,",
"-- .,,,,,,,,. ------ .,,,,,,. - .,,,,,,,,. --P.,,,",
". -- .,,,,,. - .,,,,,,,,,,,,,. - .,,,,,,,. -N.,,,,",
",,. - .,,,. - .,,,,,,,,,,,,,,,. - .,,,,,. -N.,,,,,",
",,,. - .,. -- .,,,,,,,,,,,,,,,,. - .,,,. -P.,,,,,,",
",,,,. --- -  -P.,,,,,,,,,,,,,. -. -------P.,,,,,,,",
",,,,,,,. - .. -P.,,,,,,,,,,,. - .,,,,,. - .,,,,,,,",
",,,,,,. - .,,. -P.,,,,,,,,,,,. - .,,,,,. -- .,,,,,",
",,,,,. - .,,,,. ---- .,,,,,,. --- .,,,,,,. - .,,,,",
",,,,. - .,,,,,,,,,. - .,,,,. - . - .,,,. -- .,,,,,",
",,,,,. - .,,,,,,,,,. - .,,. - .,,. - .,. - .,,,,,,",
"- .,,. -- .,,,,,,,. - ------ .,,,. -  -- .,,,,,,,,",
" - .,. - .,,,,,,,,. -P.,,,,,,,,,,,. -- .,,,,,,,,,,",
". - .,. - .,,,,,,,. -P.,,,,,,,,,. -- .,,,,,,,,,,,,",
",. - .,. -- .,,,,,. -N.,,,,,,,. -- .,,,,,,,,,,,,,,",
",,. -------- .,,,. -P.,,,,,,. -- .. -P.,,,,,,,,,,,",
",,,,,,,,,. -- .,,,. ------ . - .,. - - .,,,,,,,,,,",
",,,,,,,,,. - .,,,,,,,,,,. --- . --- . - .,,,,,,,,,",
",,,,,,,,. - .,,,,,,,,,,,. - .. - .,,,. -----P.,,,,",
",,,. -- .. - .,,,,,,,,,. ------ .,. --- .,,. --P.,",
",. -- . ----- .,,,,,,,,,,,,,,,,,,. -- .,,,,. --P.,",
",,. -- .,,,. - .,,,,,,,,,,,,,,,. -- .,,,,,,,,. -NP",
",,,. -- .,,,. - .,,,,,,,,,,,,. -- .,,,,,,,,,,,,. -",
",,,,. -- .,,,. - .,,,,,,,,,,. - .,,,,,,,,,,,,,,. -",
",,,,,. -- .,,,. ----- .,,,,. - .,,,,,,,,,,,,,,,. -",
",,,,,,. -- .,,,,,,,. - .,,,. - .,,,,,,,,,,,,,,,. -",
",,,,,,,. -- .,,,,,,,. - .,,,. - .,,,,,,,,,,,,,,. -",
",,,,,,,,. -- .,,,,,,,. - .,,,. - .,,,,,,,,,,,,,. -",
",,,,,,. -- .,,,,,,,,,,. --------- .,,,. --- .,,. -",
",,,,. -- - .,,,,,. - .,,,PPNCP,. - .,. --  - .,. -",
",,. -- .. - .,,,. - .,,,,,,,,,,,. ------ .. - . - ",
". -- .,,,. - .,. - .,,,,,,,,,,,,,,,. - .,,,. --- .",
"-- .,,,,,,. ----- .,,,,,,,,,,,,,,. ---- .,,,. - .,",
",,,,,,,,,,,,,. - .,,,,,,,,,,,,,,. - .. - .,. - .,,",
",,,,,,,,,,,,.P- .,,,,,,,,,,,,,,. - .,,. - . - .,,,",
",,,,,,,,,,,,,.P- .,,,,,,,,,,,,. - .,,,,. --- .,,,,",
",,,,,,,,,,,,,,.P- .,,,,,,,,,,,,. - .,,,,,,. - .,,,",
",,,,,,,,,,,,,,,.N- .,,,,,,,,,,,,. - .,,,,,,. - .,,",
",,,,,,,,,,,,,,,,.P---- .,,,,,,,,. - .,,,,,,,. - .,",
};