/* XPM */
static char *result[] = {
/* columns rows colors chars-per-pixel */
"50 50 7 1",
". c #7f7f7f",
", c #9f9f9f",
"B c #815002",
"Z c #18392b",
"- c #000000",
"F c #FFFFFF",
"  c #189705",




/* pixels */
"F,,,,,-...F,,,,,F...-.....B....F...   ,F.....F,,,-",
"-,,,,,F...-,,,,,,,-....ZZ..Z..-....    ,,F...B,,,,",
".....-,,,,,F.....-,,,,,ZZZZZ..F......    ...B,,,--",
",,,F,,,,,,,F...-.......ZZ,,,-....-.    ,,,,,-.....",
"F.....-...-,,,,,,B......ZZ,,,,F,,,,,F... .--......",
"....F.....-,,,F,,,,,-....ZZF...B,,,,--,, ,,,B.....",
".....-,,,,,F.....-,,,,,,,-ZZ..F.....F...-  ,,,,B..",
"F,,,,,-...F,,,,,F...-.....B.....F....--,  B...F,,,",
"...F..Z.-,,,,,B..F,,.,,,,-...F,,,,,,,F...   ,,,,,,",
"-,,,ZZB.....F...Z...-,,,,,B.....F.....BB,,  ,--...",
"...ZZ.....-,,,FZ,,-....F...F,,,,B-B....F,,   ....F",
"Z..ZZ-,,,,,F...-ZZZZZ-....F.....FF...-,,  ,,F,,,,,",
"FZZZZ,-...F,,,,,Z...ZZ....F...B,,,,,F....  ...-...",
",,,FZ,,,,F...-.Z...F,ZZ,-....-ZZ...F,,,,  ...-....",
"...B,,,,F....-,,,,,F..ZZ.B...Z,,,,-....F  ....F,,,",
",,,,,-,,,ZZZ...B,,,,,,Z.....Z...,F....-,,,  ....F.",
"....F....B,,Z--,,,,B..ZZZZZZ,,,,F....-,,,,F  ..F,,",
",,,F,,,,,B,,,Z,-.....-ZZ...B....--....F.     -,,,,",
"F....ZB,,,-..ZF,,,,,F.Z..-,,,,,,BF,,,-....F,,,,,,,",
"F,,,,ZZ...F,,ZZZF...-ZZ...B.....F,,,,,,F.....-,,,,",
"B...F,ZZ,,-....Z,,,,ZZ....F,,,,,-,,,F.....--......",
"...B,,,ZZ...-..ZZZZZZ,,F....--,,,,F.....-...F...B,",
"....F...ZZZ,,--,,,,Z.....F,,,,,,BB...F,,,,-....F,,",
"BB,,,F.ZZZ.--,,,,B.Z..F,,,,,F...F,,,B.....-....-..",
",,,F,ZZZF.....-..ZZZ--....F,,,,,--.....F,,,,,-,,,,",
"-----Z-Z...B..ZZZZ...-,,,,,,F,,,,,-.....-,,,,,....",
"---ZZZ--ZZZZZZZF,,.ZZF....-B....,,,....,,F...,,-,,",
"---ZZ-BZZ,B,,,,,-,Z-,,,,F,,,F--,,,,....,--,,..F...",
"---ZZZ--ZZZZB,,,,Z---,,,F......-.....F....,,,,,,,,",
"----....B..ZZZZZZZ,,,F....F,,,,..F,,,,,,FF,,.....,",
"....--.....F,,,,,ZZZ...--....-,,,,,,B..-,,,,,,B...",
"--B,,,BB...F,,,,-....F,,,-....-,,,,,,B.-,,,,,,B...",
".F,,,,,--.....F,....-....,,BB...F,,,,-...-,,,,.F,,",
"--B,,,,F.....-..,,BB...F,,,,-....F,,....-,,,,,,B..",
"--B,,,,,BB...F,,,,-....F,,..-,-.,,BB...F,,,,-....F",
"--B,,,,F.....-.....F,,,,,,,BB...F,,,,-....F,,.F..,",
"--B,,,BB...F,,,,-....F,,....-.....F,,,,,,-.....,,,",
".F,,,,,--.....F,.....-.....F,,.F,,,,,--.....F,...,",
"-.F,,,,,--.....F.F,,,,,--.....F,..F,,,,B...,-.....",
"-.-,,,,,,B...-B,,,,,B....F,,,,,,-..-,,,,,,B.......",
"--B,,,.F,,,,,--.-,,,,,,B........F.-,,,,,,B...,....",
".....-,,,,,F...-,,,,,-ZZ..F.....--.....F,,,B,,,,-,",
"F,,,,,-...F,,,,,F...-.....B.....--....F,,,,,ZZ....",
"...F..Z.-,,,,,B..F,,.,,,,-...F,,,,F....--ZZ.....F,",
"-,,,ZZB.....F...Z...-,,,,,B.....F...--ZZ,,,,,--,,,",
"...ZZ.....-,,,FZ,,-....F...F,,,,F...ZZ,,---F,,,,,,",
"....--.....F,,,,,,,F....--.......F,,Z-.....-,,,,,,",
"--B,,,,F.....-.....F,,,,,,-.....FF..ZZZ.-ZZZ---...",
"F,,,,,-...F,,,,,F...-.....B.....B-,,,,ZZZZZZ---...",
"...F..Z.-,,,,,B..F,,.,,,,-...F,,,,,--....ZZZ---F,,",
"F,,,,,-...F,,,,,F...-.....B....F...B,,,F.....F,,,,-"
};